HIERARCHY
ROOT Hips
{
    OFFSET   0.000000   0.000000   0.000000
    CHANNELS 6 Xposition Yposition Zposition Zrotation Xrotation Yrotation
    JOINT Chest
    {
        OFFSET   0.000000   8.007230   0.000000
        CHANNELS 3 Zrotation Xrotation Yrotation
        JOINT Chest2
        {
            OFFSET   0.000000  22.077100   0.000000
            CHANNELS 3 Zrotation Xrotation Yrotation
            JOINT Neck
            {
                OFFSET   0.000000  23.255100   0.000000
                CHANNELS 3 Zrotation Xrotation Yrotation
                JOINT Head
                {
                    OFFSET   0.000000  14.370100   1.956600
                    CHANNELS 3 Zrotation Xrotation Yrotation
                    End Site
                    {
                        OFFSET   0.000000  19.566000   0.000000
                    }
                }
            }
            JOINT LeftCollar
            {
                OFFSET   3.911900  19.017000  -0.467063
                CHANNELS 3 Zrotation Xrotation Yrotation
                JOINT LeftShoulder
                {
                    OFFSET  10.383700   0.000000   0.000000
                    CHANNELS 3 Zrotation Xrotation Yrotation
                    JOINT LeftElbow
                    {
                        OFFSET  26.662100   0.001193   0.000980
                        CHANNELS 3 Zrotation Xrotation Yrotation
                        JOINT LeftWrist
                        {
                            OFFSET  28.869000  -0.000059  -0.000082
                            CHANNELS 3 Zrotation Xrotation Yrotation
                            JOINT LeftFinger0
                            {
                                OFFSET   2.044650  -2.323450   3.252850
                                CHANNELS 3 Zrotation Xrotation Yrotation
                                JOINT LeftFinger01
                                {
                                    OFFSET   3.088130   0.000000   0.000000
                                    CHANNELS 3 Zrotation Xrotation Yrotation
                                    JOINT LeftFinger02
                                    {
                                        OFFSET   2.639460   0.000000   0.000000
                                        CHANNELS 3 Zrotation Xrotation Yrotation
                                        End Site
                                        {
                                            OFFSET   2.582190   0.000000   0.000000
                                        }
                                    }
                                }
                            }
                            JOINT LeftFinger1
                            {
                                OFFSET   8.364480   0.000000   3.252850
                                CHANNELS 3 Zrotation Xrotation Yrotation
                                JOINT LeftFinger11
                                {
                                    OFFSET   4.646930   0.000000   0.000000
                                    CHANNELS 3 Zrotation Xrotation Yrotation
                                    JOINT LeftFinger12
                                    {
                                        OFFSET   2.323470   0.000000   0.000000
                                        CHANNELS 3 Zrotation Xrotation Yrotation
                                        End Site
                                        {
                                            OFFSET   2.273050   0.000000   0.000000
                                        }
                                    }
                                }
                            }
                            JOINT LeftFinger2
                            {
                                OFFSET   8.364490   0.000016   1.078090
                                CHANNELS 3 Zrotation Xrotation Yrotation
                                JOINT LeftFinger21
                                {
                                    OFFSET   5.111610   0.000000   0.000000
                                    CHANNELS 3 Zrotation Xrotation Yrotation
                                    JOINT LeftFinger22
                                    {
                                        OFFSET   2.788150   0.000016   0.000000
                                        CHANNELS 3 Zrotation Xrotation Yrotation
                                        End Site
                                        {
                                            OFFSET   2.727660   0.000000   0.000000
                                        }
                                    }
                                }
                            }
                            JOINT LeftFinger3
                            {
                                OFFSET   7.899780   0.000015  -1.078090
                                CHANNELS 3 Zrotation Xrotation Yrotation
                                JOINT LeftFinger31
                                {
                                    OFFSET   4.646930   0.000000   0.000000
                                    CHANNELS 3 Zrotation Xrotation Yrotation
                                    JOINT LeftFinger32
                                    {
                                        OFFSET   2.323470   0.000000   0.000000
                                        CHANNELS 3 Zrotation Xrotation Yrotation
                                        End Site
                                        {
                                            OFFSET   2.273050   0.000000   0.000000
                                        }
                                    }
                                }
                            }
                            JOINT LeftFinger4
                            {
                                OFFSET   7.435090   0.000000  -3.252850
                                CHANNELS 3 Zrotation Xrotation Yrotation
                                JOINT LeftFinger41
                                {
                                    OFFSET   3.717550   0.000000   0.000000
                                    CHANNELS 3 Zrotation Xrotation Yrotation
                                    JOINT LeftFinger42
                                    {
                                        OFFSET   1.858770   0.000000   0.000000
                                        CHANNELS 3 Zrotation Xrotation Yrotation
                                        End Site
                                        {
                                            OFFSET   1.818440   0.000000   0.000000
                                        }
                                    }
                                }
                            }
                        }
                    }
                }
            }
            JOINT RightCollar
            {
                OFFSET  -3.911910  19.017000  -0.467062
                CHANNELS 3 Zrotation Xrotation Yrotation
                JOINT RightShoulder
                {
                    OFFSET -10.383700   0.000014   0.000000
                    CHANNELS 3 Zrotation Xrotation Yrotation
                    JOINT RightElbow
                    {
                        OFFSET -26.662100   0.001225   0.001091
                        CHANNELS 3 Zrotation Xrotation Yrotation
                        JOINT RightWrist
                        {
                            OFFSET -28.869000  -0.000020  -0.000085
                            CHANNELS 3 Zrotation Xrotation Yrotation
                            JOINT RightFinger0
                            {
                                OFFSET  -2.044650  -2.323490   3.252850
                                CHANNELS 3 Zrotation Xrotation Yrotation
                                JOINT RightFinger01
                                {
                                    OFFSET  -3.088130   0.000000   0.000000
                                    CHANNELS 3 Zrotation Xrotation Yrotation
                                    JOINT RightFinger02
                                    {
                                        OFFSET  -2.639460   0.000000   0.000000
                                        CHANNELS 3 Zrotation Xrotation Yrotation
                                        End Site
                                        {
                                            OFFSET  -2.582190   0.000000   0.000000
                                        }
                                    }
                                }
                            }
                            JOINT RightFinger1
                            {
                                OFFSET  -8.364480   0.000000   3.252850
                                CHANNELS 3 Zrotation Xrotation Yrotation
                                JOINT RightFinger11
                                {
                                    OFFSET  -4.646930   0.000000   0.000000
                                    CHANNELS 3 Zrotation Xrotation Yrotation
                                    JOINT RightFinger12
                                    {
                                        OFFSET  -2.323470   0.000000   0.000000
                                        CHANNELS 3 Zrotation Xrotation Yrotation
                                        End Site
                                        {
                                            OFFSET  -2.273050   0.000000   0.000000
                                        }
                                    }
                                }
                            }
                            JOINT RightFinger2
                            {
                                OFFSET  -8.364480   0.000000   1.078090
                                CHANNELS 3 Zrotation Xrotation Yrotation
                                JOINT RightFinger21
                                {
                                    OFFSET  -5.111620   0.000000   0.000000
                                    CHANNELS 3 Zrotation Xrotation Yrotation
                                    JOINT RightFinger22
                                    {
                                        OFFSET  -2.788160   0.000000   0.000000
                                        CHANNELS 3 Zrotation Xrotation Yrotation
                                        End Site
                                        {
                                            OFFSET  -2.727660   0.000000   0.000000
                                        }
                                    }
                                }
                            }
                            JOINT RightFinger3
                            {
                                OFFSET  -7.899780   0.000000  -1.078090
                                CHANNELS 3 Zrotation Xrotation Yrotation
                                JOINT RightFinger31
                                {
                                    OFFSET  -4.646930   0.000000   0.000000
                                    CHANNELS 3 Zrotation Xrotation Yrotation
                                    JOINT RightFinger32
                                    {
                                        OFFSET  -2.323470   0.000000   0.000000
                                        CHANNELS 3 Zrotation Xrotation Yrotation
                                        End Site
                                        {
                                            OFFSET  -2.273050   0.000000   0.000000
                                        }
                                    }
                                }
                            }
                            JOINT RightFinger4
                            {
                                OFFSET  -7.435090   0.000000  -3.252850
                                CHANNELS 3 Zrotation Xrotation Yrotation
                                JOINT RightFinger41
                                {
                                    OFFSET  -3.717550   0.000000   0.000000
                                    CHANNELS 3 Zrotation Xrotation Yrotation
                                    JOINT RightFinger42
                                    {
                                        OFFSET  -1.858760   0.000000   0.000000
                                        CHANNELS 3 Zrotation Xrotation Yrotation
                                        End Site
                                        {
                                            OFFSET  -1.818440   0.000000   0.000000
                                        }
                                    }
                                }
                            }
                        }
                    }
                }
            }
        }
    }
    JOINT LeftHip
    {
        OFFSET   9.783030   0.000000   0.000000
        CHANNELS 3 Zrotation Xrotation Yrotation
        JOINT LeftKnee
        {
            OFFSET   0.000063 -41.789100   0.000608
            CHANNELS 3 Zrotation Xrotation Yrotation
            JOINT LeftAnkle
            {
                OFFSET   0.000048 -41.133200  -0.000184
                CHANNELS 3 Zrotation Xrotation Yrotation
                JOINT LeftToe
                {
                    OFFSET   0.000000  -6.358960  14.674500
                    CHANNELS 3 Zrotation Xrotation Yrotation
                    End Site
                    {
                        OFFSET   0.000000   0.000000   3.913200
                    }
                }
            }
        }
    }
    JOINT RightHip
    {
        OFFSET  -9.783030   0.000000   0.000000
        CHANNELS 3 Zrotation Xrotation Yrotation
        JOINT RightKnee
        {
            OFFSET   0.000071 -41.789100   0.001239
            CHANNELS 3 Zrotation Xrotation Yrotation
            JOINT RightAnkle
            {
                OFFSET   0.000037 -41.133200  -0.000166
                CHANNELS 3 Zrotation Xrotation Yrotation
                JOINT RightToe
                {
                    OFFSET   0.000000  -6.358960  14.674500
                    CHANNELS 3 Zrotation Xrotation Yrotation
                    End Site
                    {
                        OFFSET   0.000000   0.000000   3.913200
                    }
                }
            }
        }
    }
}
MOTION
Frames: 4
Frame Time:   0.016667
  0.436378  89.504900   1.072590  -5.303320 -19.469500  -5.396610   0.481805  13.615100   0.826033   0.789725  27.235700   1.601350   2.238160  -1.910640   0.074939   3.687830  -3.856480   2.986230  -6.123770  -8.498550  -0.317848 -66.600400   6.083780 -30.027500  18.689900 -28.318500 -66.396000  89.184600 -46.171000  50.613300  33.461900  25.033100 -68.879500 -28.446300  -0.001565   0.007601  -9.223120   0.001846   0.001854 -43.659500   6.736450  -7.010630 -36.063500  -0.005801  -0.000900 -26.060100  -0.001011  -0.005654 -32.779300  -1.345910   2.083850 -49.201600  -0.003083  -0.001903 -32.768200   0.001095  -0.002574 -30.896600  -1.276760   2.126930 -46.376400  -0.004753  -0.003891 -30.886600  -0.000400  -0.004108 -38.659300  -3.180650   3.964020 -58.150300  -0.004796  -0.010879 -38.728100   0.001804  -0.005716  14.175500  -6.594200  12.743300  60.880600  -2.982330  26.807600 -38.322100 -36.927600  48.208500 -88.834900 -46.507700 -44.698800 -51.802300  37.497000  74.814600  -5.910540   0.004575  -0.001142  -7.955280   0.002341  -0.006128  37.895200  10.514000  13.199900  32.004300  -0.008093   0.001743  22.400500   0.001515  -0.000419  31.949900   1.574900   2.530400  47.991500   0.002937   0.001218  31.962300  -0.008303   0.001104  29.226500  -3.790130  -6.730250  44.176300   0.000106   0.003115  29.421400   0.005591  -0.002512  42.298100  -5.214260  -5.700560  63.839300  -0.000197   0.002481  42.516900   0.002194  -0.001428   2.780840  22.439300   4.583890   1.278980   0.029408   3.672650  -0.636125  -3.694200   2.043640  -0.000000   0.000000  -0.000000   5.450990  20.289200  -7.072750  -1.298710   3.451490  -5.595260  -0.201555  -5.285060   0.628352  -0.000000   0.000000   0.000000
  0.424906  89.505300   1.137050  -5.327660 -19.356900  -5.493950   0.495660  13.516500   0.830978   0.818634  27.038700   1.607980   2.218260  -1.907370   0.073925   3.655360  -3.850260   2.961200  -6.242260  -8.306200  -0.307426 -66.530500   5.884020 -28.703100  18.504300 -28.402000 -67.831400  89.153100 -46.022700  50.446800  33.307900  24.768100 -68.652400 -28.625700  -0.002034   0.007711  -9.312820   0.001833   0.001589 -43.769400   6.569200  -6.812040 -36.131200  -0.005839  -0.000868 -26.124000  -0.001086  -0.005711 -32.802100  -1.510540   2.338950 -49.248300  -0.003006  -0.001884 -32.799300   0.001049  -0.002530 -30.912000  -1.432670   2.387440 -46.411600  -0.004717  -0.003887 -30.910100  -0.000432  -0.004092 -38.649600  -3.406320   4.245820 -58.163100  -0.004913  -0.010859 -38.736600   0.001851  -0.005678  14.351500  -6.577530  12.887100  60.628900  -2.615500  25.176400 -38.295000 -37.651000  49.584500 -88.911700 -46.459100 -44.526200 -51.794900  37.597900  75.073700  -5.610240   0.004602  -0.001173  -7.805120   0.002363  -0.006479  38.198900  10.341300  12.858200  32.209700  -0.008160   0.001743  22.542200   0.001512  -0.000425  32.061000   1.361320   2.180570  48.129000   0.003002   0.001009  32.053900  -0.008399   0.000992  29.304700  -4.018640  -7.107700  44.331100   0.000092   0.003266  29.524500   0.005626  -0.002603  42.424800  -5.528120  -6.011370  64.072300  -0.000211   0.002179  42.672200   0.002180  -0.001426   2.781050  22.402300   4.594520   1.263510   0.001340   3.726020  -0.621878  -3.737840   2.080580   0.000000   0.000000  -0.000000   5.459630  20.253300  -7.025950  -1.297160   3.391040  -5.587500  -0.204973  -5.288070   0.675973  -0.000000   0.000000   0.000000
  0.415272  89.505500   1.201110  -5.341590 -19.248400  -5.572400   0.506800  13.417100   0.839212   0.841011  26.840000   1.622230   2.203420  -1.910970   0.073206   3.633730  -3.857630   2.918130  -6.339520  -8.096980  -0.274994 -66.582900   5.667720 -27.440600  18.264800 -28.430000 -69.269900  89.154700 -46.024100  50.469500  33.280900  24.618900 -68.262900 -28.825300  -0.002512   0.007806  -9.412640   0.001834   0.001341 -43.742600   6.336070  -6.577790 -36.082500  -0.005880  -0.000833 -26.078000  -0.001165  -0.005773 -32.728600  -1.728850   2.687360 -49.155300  -0.002939  -0.001869 -32.737400   0.000990  -0.002481 -30.821800  -1.638080   2.743610 -46.293000  -0.004676  -0.003874 -30.831200  -0.000475  -0.004082 -38.533600  -3.629680   4.546530 -58.021900  -0.005020  -0.010851 -38.642500   0.001889  -0.005636  14.467300  -6.525680  12.967800  60.572900  -2.428450  23.534900 -38.109000 -38.050300  51.245300 -89.022800 -46.468100 -44.557500 -51.648800  37.491800  74.937600  -4.957160   0.004617  -0.001207  -7.478580   0.002386  -0.006832  38.468300   9.958090  12.285700  32.361500  -0.008229   0.001738  22.649600   0.001515  -0.000434  31.899800   1.277680   2.062600  47.880200   0.003059  -0.004427  31.888200  -0.008489   0.000891  29.365500  -4.355920  -7.678510  44.484200   0.000078   0.003419  29.626400   0.005653  -0.002681  42.591800  -5.999680  -6.478810  64.394400  -0.000229   0.001883  42.886600   0.002189  -0.001428   2.779710  22.338400   4.592930   1.246230   0.033666   3.777690  -0.608737  -3.810260   2.113920  -0.000000   0.000000   0.000000   5.460000  20.227800  -6.981880  -1.289940   3.317740  -5.588200  -0.211305  -5.287750   0.714813  -0.000000   0.000000   0.000000
  0.406601  89.506500   1.263810  -5.347380 -19.142700  -5.633740   0.515256  13.315000   0.854229   0.856047  26.636100   1.651380   2.196690  -1.917740   0.072520   3.622920  -3.871390   2.855780  -6.429860  -7.876640  -0.240765 -66.680500   5.438340 -26.203000  17.969400 -28.363300 -70.733400  89.183300 -46.055900  50.592200  33.278700  24.480100 -67.892700 -29.007000  -0.002984   0.007901  -9.503500   0.001838   0.001104 -43.668800   6.112270  -6.364130 -36.007100  -0.005923  -0.000797 -26.006800  -0.001246  -0.005836 -32.613200  -1.936650   3.023780 -48.996200  -0.002874  -0.001857 -32.631500   0.000931  -0.002434 -30.689000  -1.833670   3.087270 -46.107400  -0.004634  -0.003862 -30.707600  -0.000520  -0.004073 -38.376100  -3.828140   4.820710 -57.805800  -0.005131  -0.010846 -38.498700   0.001926  -0.005596  14.547600  -6.460010  13.002800  60.541000  -2.265990  21.798500 -37.764300 -38.337400  53.084200 -89.269200 -46.530300 -44.776500 -51.455500  37.354800  74.750100  -4.253630   0.004629  -0.001244  -7.126820   0.002407  -0.007184  38.668900   9.546380  11.712400  32.440700  -0.008296   0.001732  22.711700   0.001518  -0.000440  31.718100   1.197640   1.953060  47.609800   0.003116  -0.009652  31.708100  -0.008581   0.000788  29.406600  -4.676940  -8.226420  44.612900   0.000060   0.003576  29.712200   0.005679  -0.002758  42.744700  -6.451540  -6.926490  64.701300  -0.000249   0.001591  43.091000   0.002200  -0.001431   2.775230  22.274300   4.591350   1.228040   0.065988   3.820130  -0.595889  -3.880970   2.140790   0.000000   0.000000   0.000000   5.455660  20.207400  -6.930850  -1.279480   3.237320  -5.595550  -0.218493  -5.285740   0.749267   0.000000   0.000000   0.000000
